<?xml version="1.0" encoding="UTF-8"?>
<svg version="1.1" xmlns="http://www.w3.org/2000/svg" width="200" height="60">
<path d="M0 0 C3.39950286 1.12554338 5.27765172 3.03080137 7.86865234 5.49243164 C8.37291748 5.97139893 8.87718262 6.45036621 9.39672852 6.94384766 C10.49142269 7.98957787 11.58115693 9.04051894 12.66650391 10.09594727 C14.5480005 11.91809393 16.45403913 13.71243147 18.36083984 15.50805664 C19.65649806 16.75140417 20.9507932 17.99617384 22.24365234 19.24243164 C22.87263428 19.83306396 23.50161621 20.42369629 24.1496582 21.03222656 C25.88818359 22.73852539 25.88818359 22.73852539 28.43115234 25.80493164 C28.09008789 27.99658203 28.09008789 27.99658203 27.43115234 29.80493164 C26.11115234 29.80493164 24.79115234 29.80493164 23.43115234 29.80493164 C23.45435547 31.10688477 23.47755859 32.40883789 23.50146484 33.75024414 C23.52023176 35.47680088 23.53843097 37.20336385 23.55615234 38.92993164 C23.57291016 39.78586914 23.58966797 40.64180664 23.60693359 41.52368164 C23.61660156 42.78051758 23.61660156 42.78051758 23.62646484 44.06274414 C23.64217529 45.20960693 23.64217529 45.20960693 23.65820312 46.37963867 C23.37663776 49.38724123 22.46447812 51.97669396 21.43115234 54.80493164 C15.04078003 54.83020226 8.65042052 54.84776481 2.26000977 54.85986328 C0.08422362 54.86490472 -2.09155912 54.87173771 -4.26733398 54.88037109 C-7.38737832 54.89244502 -10.50737804 54.89816169 -13.62744141 54.90258789 C-15.09617958 54.91032982 -15.09617958 54.91032982 -16.59458923 54.91822815 C-17.94587669 54.91834145 -17.94587669 54.91834145 -19.32446289 54.91845703 C-20.12166245 54.92067764 -20.918862 54.92289825 -21.74021912 54.92518616 C-23.56884766 54.80493164 -23.56884766 54.80493164 -24.56884766 53.80493164 C-24.72649171 52.02623438 -24.81985443 50.24174688 -24.88525391 48.45727539 C-24.92714844 47.37768555 -24.96904297 46.2980957 -25.01220703 45.18579102 C-25.05152344 44.04948242 -25.09083984 42.91317383 -25.13134766 41.74243164 C-25.17453125 40.60225586 -25.21771484 39.46208008 -25.26220703 38.28735352 C-25.36867605 35.46000969 -25.47068973 32.63257426 -25.56884766 29.80493164 C-26.88884766 29.80493164 -28.20884766 29.80493164 -29.56884766 29.80493164 C-29.06257832 25.53401183 -27.86671531 23.61325594 -24.81494141 20.62524414 C-24.04214844 19.86083008 -23.26935547 19.09641602 -22.47314453 18.30883789 C-21.65910156 17.52379883 -20.84505859 16.73875977 -20.00634766 15.92993164 C-19.219375 15.15262695 -18.43240234 14.37532227 -17.62158203 13.57446289 C-15.29455442 11.29155864 -12.93625742 9.04584623 -10.56884766 6.80493164 C-9.8432666 6.09046875 -9.11768555 5.37600586 -8.37011719 4.63989258 C-7.6841748 3.99052734 -6.99823242 3.34116211 -6.29150391 2.67211914 C-5.69217041 2.09316895 -5.09283691 1.51421875 -4.4753418 0.91772461 C-2.56884766 -0.19506836 -2.56884766 -0.19506836 0 0 Z M-3.45166016 8.52758789 C-4.19158203 9.29973633 -4.93150391 10.07188477 -5.69384766 10.86743164 C-10.19438891 15.55215874 -10.19438891 15.55215874 -12.64013672 17.203125 C-16.18281297 19.72973657 -18.2760869 21.43689384 -19.20996094 25.80078125 C-19.35618503 29.32264204 -19.26706376 32.72168388 -19.06884766 36.24243164 C-18.90384766 40.38805664 -18.73884766 44.53368164 -18.56884766 48.80493164 C-6.68884766 48.80493164 5.19115234 48.80493164 17.43115234 48.80493164 C17.70958984 42.64836914 17.70958984 42.64836914 17.99365234 36.36743164 C18.07558838 35.09198486 18.15752441 33.81653809 18.24194336 32.50244141 C18.34736918 27.65625442 18.37128127 24.15632897 15.54370117 20.09179688 C13.27484113 17.81312201 10.94936339 15.80133261 8.43115234 13.80493164 C6.94451572 12.45896992 5.46410417 11.10605652 3.99365234 9.74243164 C0.44237846 6.33775424 0.44237846 6.33775424 -3.45166016 8.52758789 Z " fill="#000000" transform="translate(29.56884765625,0.195068359375)"/>
<path d="M0 0 C1.99879574 -0.06939444 4.0010501 -0.0648019 6 0 C7.64453125 1.609375 7.64453125 1.609375 8.8125 3.75 C9.21082031 4.44609375 9.60914062 5.1421875 10.01953125 5.859375 C10.95584757 7.90360345 11.54010997 9.80439598 12 12 C12.66 12 13.32 12 14 12 C14.37125 10.700625 14.37125 10.700625 14.75 9.375 C16.12477141 5.66311719 17.37495586 2.97977983 20 0 C22.31 0 24.62 0 27 0 C27 8.58 27 17.16 27 26 C25.02 26 23.04 26 21 26 C19.18884044 24.18884044 19.61800552 21.38721773 19.4375 18.9375 C19.31181641 17.28041016 19.31181641 17.28041016 19.18359375 15.58984375 C19.12300781 14.73519531 19.06242187 13.88054688 19 13 C17.35 15.64 15.7 18.28 14 21 C9.60841671 19.5361389 9.12052567 17.02168662 7 13 C6.67 16.96 6.34 20.92 6 25 C4.35 25.33 2.7 25.66 1 26 C0 25 0 25 -0.11352539 22.59155273 C-0.10828857 21.54942627 -0.10305176 20.5072998 -0.09765625 19.43359375 C-0.09443359 18.30888672 -0.09121094 17.18417969 -0.08789062 16.02539062 C-0.07951172 14.84138672 -0.07113281 13.65738281 -0.0625 12.4375 C-0.05798828 11.24962891 -0.05347656 10.06175781 -0.04882812 8.83789062 C-0.03699675 5.89187774 -0.02051287 2.94596319 0 0 Z " fill="#000000" transform="translate(63,8)"/>
<path d="M0 0 C13 0 13 0 18 4 C19.40375266 7.94805434 19.08376663 9.7487001 17.75 13.75 C16 17 16 17 13 19 C9.8125 19.125 9.8125 19.125 7 19 C6.34 21.31 5.68 23.62 5 26 C3.35 26 1.7 26 0 26 C0 17.42 0 8.84 0 0 Z M6 5 C6 7.97 6 10.94 6 14 C7.66611905 14.042721 9.33382885 14.04063832 11 14 C12.40432936 12.82281015 12.40432936 12.82281015 12.125 9.5 C12.40432936 6.17718985 12.40432936 6.17718985 11 5 C9.33382885 4.95936168 7.66611905 4.957279 6 5 Z " fill="#000000" transform="translate(167,15)"/>
<path d="M0 0 C11 0 11 0 16 2 C18.41486943 4.41486943 18.2961925 5.12707789 18.3125 8.4375 C18.32925781 9.21996094 18.34601563 10.00242187 18.36328125 10.80859375 C18 13 18 13 16.7734375 14.7421875 C14.55753503 16.31381877 13.00676354 16.49226351 10.3125 16.6875 C9.10013672 16.78611328 9.10013672 16.78611328 7.86328125 16.88671875 C6.94095703 16.94279297 6.94095703 16.94279297 6 17 C6.020625 18.299375 6.04125 19.59875 6.0625 20.9375 C6.08399454 22.29165633 6.07148199 23.64756083 6 25 C5.67 25.33 5.34 25.66 5 26 C3.35 26 1.7 26 0 26 C0 17.42 0 8.84 0 0 Z M6 5 C6 7.31 6 9.62 6 12 C7.65 11.67 9.3 11.34 11 11 C11.6814823 9.10820797 11.6814823 9.10820797 12 7 C11.34 6.34 10.68 5.68 10 5 C8.68 5 7.36 5 6 5 Z " fill="#000000" transform="translate(113,8)"/>
<path d="M0 0 C2.9375 1.5625 2.9375 1.5625 5 4 C6.21645511 8.10553601 6.26054288 10.2732225 4.8125 14.3125 C2.91132939 17.13147712 2.22782994 18.10338057 -1 19 C-5.23244524 19.4617213 -7.27106961 19.47538938 -10.875 17.125 C-13.60044891 14.39955109 -13.94669869 13.56499391 -14.3125 9.6875 C-13.95124058 5.42463889 -12.98007946 3.98007946 -10 1 C-6.78597521 -0.6070124 -3.48595446 -0.46746516 0 0 Z M-6 5 C-8.2491908 6.82703227 -8.2491908 6.82703227 -8.25 9.5 C-8.2491908 12.17296773 -8.2491908 12.17296773 -6 14 C-3.39719432 13.67958603 -3.39719432 13.67958603 -1 13 C-1 10.69 -1 8.38 -1 6 C-3.39719432 5.32041397 -3.39719432 5.32041397 -6 5 Z " fill="#000000" transform="translate(159,15)"/>
<path d="M0 0 C3.0625 0.1875 3.0625 0.1875 5.0625 2.1875 C4.6875 5.3125 4.6875 5.3125 4.0625 8.1875 C4.26875 7.548125 4.475 6.90875 4.6875 6.25 C6.0625 4.1875 6.0625 4.1875 9.0625 3.4375 C13.39036136 3.07684489 17.72038984 3.1875 22.0625 3.1875 C22.3925 2.5275 22.7225 1.8675 23.0625 1.1875 C24.7125 1.8475 26.3625 2.5075 28.0625 3.1875 C28.0625 3.8475 28.0625 4.5075 28.0625 5.1875 C27.4025 5.1875 26.7425 5.1875 26.0625 5.1875 C26.0625 6.8375 26.0625 8.4875 26.0625 10.1875 C27.7125 9.8575 29.3625 9.5275 31.0625 9.1875 C31.0625 10.1775 31.0625 11.1675 31.0625 12.1875 C27.0625 12.1875 23.0625 12.1875 19.0625 12.1875 C19.0625 9.8775 19.0625 7.5675 19.0625 5.1875 C18.4025 5.1875 17.7425 5.1875 17.0625 5.1875 C17.0625 7.4975 17.0625 9.8075 17.0625 12.1875 C16.0725 12.1875 15.0825 12.1875 14.0625 12.1875 C14.0625 10.8675 14.0625 9.5475 14.0625 8.1875 C13.0725 8.5175 12.0825 8.8475 11.0625 9.1875 C11.7225 9.1875 12.3825 9.1875 13.0625 9.1875 C13.0625 10.1775 13.0625 11.1675 13.0625 12.1875 C11.4598218 12.29574843 9.85504252 12.37320645 8.25 12.4375 C7.35667969 12.48390625 6.46335937 12.5303125 5.54296875 12.578125 C3.0625 12.1875 3.0625 12.1875 1.23828125 10.171875 C0.85027344 9.51703125 0.46226563 8.8621875 0.0625 8.1875 C-0.2675 9.5075 -0.5975 10.8275 -0.9375 12.1875 C-1.9275 12.1875 -2.9175 12.1875 -3.9375 12.1875 C-3.96437279 10.37507948 -3.98383715 8.56254767 -4 6.75 C-4.01160156 5.74066406 -4.02320312 4.73132812 -4.03515625 3.69140625 C-3.89382851 0.06776301 -3.66499398 0.23393579 0 0 Z M-0.9375 3.1875 C-0.9375 3.8475 -0.9375 4.5075 -0.9375 5.1875 C0.0525 5.1875 1.0425 5.1875 2.0625 5.1875 C2.0625 4.5275 2.0625 3.8675 2.0625 3.1875 C1.0725 3.1875 0.0825 3.1875 -0.9375 3.1875 Z " fill="#000000" transform="translate(108.9375,39.8125)"/>
<path d="M0 0 C1.98 0 3.96 0 6 0 C6.99 2.64 7.98 5.28 9 8 C9.433125 7.13375 9.433125 7.13375 9.875 6.25 C11.4375 3.125 11.4375 3.125 13 0 C14.98 0 16.96 0 19 0 C18.38965243 3.48576282 17.48391539 6.5871923 16.15234375 9.86328125 C15.79462891 10.74951172 15.43691406 11.63574219 15.06835938 12.54882812 C14.69517578 13.46083984 14.32199219 14.37285156 13.9375 15.3125 C13.56044922 16.24384766 13.18339844 17.17519531 12.79492188 18.13476562 C11.86716875 20.42478917 10.93541999 22.71309996 10 25 C7.69 25 5.38 25 3 25 C3.350625 24.154375 3.70125 23.30875 4.0625 22.4375 C5.85914012 15.84981955 3.72802716 10.89477414 0.83984375 5.015625 C0 3 0 3 0 0 Z " fill="#000000" transform="translate(92,15)"/>
<path d="M0 0 C0.70125 0.01417969 1.4025 0.02835938 2.125 0.04296875 C3.176875 0.05263672 3.176875 0.05263672 4.25 0.0625 C6.125 0.23046875 6.125 0.23046875 8.125 1.23046875 C7.795 2.55046875 7.465 3.87046875 7.125 5.23046875 C5.475 5.56046875 3.825 5.89046875 2.125 6.23046875 C3.115 6.74609375 4.105 7.26171875 5.125 7.79296875 C8.125 10.23046875 8.125 10.23046875 8.6875 13.85546875 C8.501875 14.96921875 8.31625 16.08296875 8.125 17.23046875 C4.77172361 19.46598634 4.21756343 19.40330403 0.4375 18.85546875 C-0.37074219 18.74460937 -1.17898437 18.63375 -2.01171875 18.51953125 C-2.62660156 18.42414062 -3.24148437 18.32875 -3.875 18.23046875 C-4.205 16.91046875 -4.535 15.59046875 -4.875 14.23046875 C-1.82236336 13.24926411 0.07236336 13.24926411 3.125 14.23046875 C3.125 13.57046875 3.125 12.91046875 3.125 12.23046875 C2.17625 11.94171875 1.2275 11.65296875 0.25 11.35546875 C-2.875 10.23046875 -2.875 10.23046875 -4.875 8.23046875 C-4.23248114 0.52024247 -4.23248114 0.52024247 0 0 Z " fill="#000000" transform="translate(191.875,14.76953125)"/>
<path d="M0 0 C3.96 0 7.92 0 12 0 C12 1.32 12 2.64 12 4 C11.19175781 4.44988281 10.38351563 4.89976563 9.55078125 5.36328125 C6.69779356 6.77932041 6.69779356 6.77932041 6.29296875 9.91796875 C6.25816406 10.99691406 6.22335938 12.07585938 6.1875 13.1875 C6.13980469 14.27417969 6.09210938 15.36085938 6.04296875 16.48046875 C6.02878906 17.31191406 6.01460937 18.14335938 6 19 C4.33388095 19.042721 2.66617115 19.04063832 1 19 C0 18 0 18 -0.11352539 16.23413086 C-0.10828857 15.48526611 -0.10305176 14.73640137 -0.09765625 13.96484375 C-0.09443359 13.15595703 -0.09121094 12.34707031 -0.08789062 11.51367188 C-0.07951172 10.66353516 -0.07113281 9.81339844 -0.0625 8.9375 C-0.05798828 8.08349609 -0.05347656 7.22949219 -0.04882812 6.34960938 C-0.03700373 4.23304337 -0.01906769 2.11651315 0 0 Z " fill="#000000" transform="translate(133,15)"/>
<path d="M0 0 C1.98 0 3.96 0 6 0 C6.66 0.66 7.32 1.32 8 2 C10.31765729 2.71927295 12.65095874 3.3909893 15 4 C15.33 6.64 15.66 9.28 16 12 C13.69 12 11.38 12 9 12 C8.375 10.125 8.375 10.125 8 8 C8.66 7.34 9.32 6.68 10 6 C7.69 6.66 5.38 7.32 3 8 C3 9.32 3 10.64 3 12 C2.01 12 1.02 12 0 12 C0 8.04 0 4.08 0 0 Z M3 3 C3 3.66 3 4.32 3 5 C3.66 5 4.32 5 5 5 C5 4.34 5 3.68 5 3 C4.34 3 3.68 3 3 3 Z M10 8 C10 8.66 10 9.32 10 10 C10.99 9.67 11.98 9.34 13 9 C12.01 8.67 11.02 8.34 10 8 Z " fill="#000000" transform="translate(145,40)"/>
<path d="M0 0 C0.33 0.99 0.66 1.98 1 3 C-0.98 3 -2.96 3 -5 3 C-5 4.98 -5 6.96 -5 9 C-3.68 9 -2.36 9 -1 9 C-1.66 8.67 -2.32 8.34 -3 8 C-3 7.01 -3 6.02 -3 5 C-1.35 5 0.3 5 2 5 C2 6.98 2 8.96 2 11 C-4.40096618 12.32850242 -4.40096618 12.32850242 -6.9375 10.9375 C-8.47555213 8.13281671 -8.39310741 6.14485925 -8 3 C-5.87141064 -0.36093057 -3.79035926 -0.30732643 0 0 Z " fill="#000000" transform="translate(184,40)"/>
<path d="M0 0 C2.64 0 5.28 0 8 0 C8 2.31 8 4.62 8 7 C5.6875 7.625 5.6875 7.625 3 8 C2.01 7.34 1.02 6.68 0 6 C-0.1875 2.875 -0.1875 2.875 0 0 Z " fill="#000000" transform="translate(30,25)"/>
<path d="M0 0 C2.33944736 0.28730055 4.6739143 0.61936779 7 1 C7 3.31 7 5.62 7 8 C4.69 8 2.38 8 0 8 C-0.38063221 5.6739143 -0.71269945 3.33944736 -1 1 C-0.67 0.67 -0.34 0.34 0 0 Z " fill="#000000" transform="translate(31,34)"/>
<path d="M0 0 C1.99954746 -0.04254356 4.00041636 -0.04080783 6 0 C7 1 7 1 7.0625 4.5625 C7.041875 5.696875 7.02125 6.83125 7 8 C4.69 8 2.38 8 0 8 C0 5.36 0 2.72 0 0 Z " fill="#000000" transform="translate(21,34)"/>
<path d="M0 0 C2.31 0 4.62 0 7 0 C7 2.64 7 5.28 7 8 C4.69 7.67 2.38 7.34 0 7 C0 4.69 0 2.38 0 0 Z " fill="#000000" transform="translate(21,25)"/>
<path d="M0 0 C1 1 1 1 1.1875 3.4375 C1 6 1 6 -1 8 C-3.5625 8.1875 -3.5625 8.1875 -6 8 C-7 7 -7 7 -7.0625 3.4375 C-7.041875 2.303125 -7.02125 1.16875 -7 0 C-4.31633121 -1.3418344 -2.84719317 -0.73004953 0 0 Z M-4 1 C-4.33 2.32 -4.66 3.64 -5 5 C-4.01 5.33 -3.02 5.66 -2 6 C-1.67 4.68 -1.34 3.36 -1 2 C-1.99 1.67 -2.98 1.34 -4 1 Z " fill="#000000" transform="translate(194,44)"/>
<path d="M0 0 C3 1 3 1 4 3 C4.66 2.01 5.32 1.02 6 0 C6.66 0 7.32 0 8 0 C7.45660208 4.56454251 6.20536179 7.9728176 4 12 C3.01 12 2.02 12 1 12 C1 11.01 1 10.02 1 9 C1.66 9 2.32 9 3 9 C2.01 6.03 1.02 3.06 0 0 Z " fill="#000000" transform="translate(161,43)"/>
<path d="M0 0 C0.99 0 1.98 0 3 0 C3 0.99 3 1.98 3 3 C2.01 3 1.02 3 0 3 C0 2.01 0 1.02 0 0 Z " fill="#000000" transform="translate(168,49)"/>
<path d="M0 0 C0.66 0 1.32 0 2 0 C2 0.99 2 1.98 2 3 C1.34 3 0.68 3 0 3 C0 2.01 0 1.02 0 0 Z " fill="#000000" transform="translate(196,49)"/>
</svg>
