<svg width="290" height="60" viewBox="0 0 290 60" fill="none" xmlns="http://www.w3.org/2000/svg">
<path d="M41.0921 1.44679C39.8058 0.564742 38.1242 0.510722 36.784 1.30839L11.6078 16.2931L23.2155 14.4828L25.7951 16.0345L43.2685 26.878C45.6682 28.3672 44.6129 32.069 41.7887 32.069C40.2388 32.069 38.9823 33.3254 38.9823 34.8754V52.0476C38.9823 55.335 42.7276 57.2189 45.367 55.2591L60.0056 44.3891C61.0218 43.6345 61.6209 42.4435 61.6209 41.1777V26.0203C61.6209 24.5334 62.8264 23.3279 64.3133 23.3279C66.959 23.3279 68.0179 19.9114 65.836 18.4151L41.0921 1.44679Z" fill="url(#paint0_linear_879_597)"/>
<path d="M6.35979 19.4736C4.56191 20.5632 5.3343 23.3279 7.43658 23.3279C7.8033 23.3279 8.16348 23.2309 8.48053 23.0466L20.5456 16.0345L23.2155 14.4828L11.6078 16.2931L7.34042 18.8793L6.35979 19.4736Z" fill="url(#paint1_linear_879_597)"/>
<path d="M23.2155 14.4828L20.5456 16.0345C22.3256 15 24.0664 14.7952 25.7951 16.0345L23.2155 14.4828Z" fill="url(#paint2_linear_879_597)"/>
<path d="M105.69 31.86C104.03 31.86 102.49 31.59 101.07 31.05C99.67 30.51 98.45 29.75 97.41 28.77C96.39 27.79 95.59 26.64 95.01 25.32C94.45 24 94.17 22.56 94.17 21C94.17 19.44 94.45 18 95.01 16.68C95.59 15.36 96.4 14.21 97.44 13.23C98.48 12.25 99.7 11.49 101.1 10.95C102.5 10.41 104.02 10.14 105.66 10.14C107.32 10.14 108.84 10.41 110.22 10.95C111.62 11.49 112.83 12.25 113.85 13.23C114.89 14.21 115.7 15.36 116.28 16.68C116.86 17.98 117.15 19.42 117.15 21C117.15 22.56 116.86 24.01 116.28 25.35C115.7 26.67 114.89 27.82 113.85 28.8C112.83 29.76 111.62 30.51 110.22 31.05C108.84 31.59 107.33 31.86 105.69 31.86ZM105.66 27.72C106.6 27.72 107.46 27.56 108.24 27.24C109.04 26.92 109.74 26.46 110.34 25.86C110.94 25.26 111.4 24.55 111.72 23.73C112.06 22.91 112.23 22 112.23 21C112.23 20 112.06 19.09 111.72 18.27C111.4 17.45 110.94 16.74 110.34 16.14C109.76 15.54 109.07 15.08 108.27 14.76C107.47 14.44 106.6 14.28 105.66 14.28C104.72 14.28 103.85 14.44 103.05 14.76C102.27 15.08 101.58 15.54 100.98 16.14C100.38 16.74 99.91 17.45 99.57 18.27C99.25 19.09 99.09 20 99.09 21C99.09 21.98 99.25 22.89 99.57 23.73C99.91 24.55 100.37 25.26 100.95 25.86C101.55 26.46 102.25 26.92 103.05 27.24C103.85 27.56 104.72 27.72 105.66 27.72ZM127.283 31.74C125.943 31.74 124.743 31.48 123.683 30.96C122.643 30.44 121.833 29.65 121.253 28.59C120.673 27.51 120.383 26.14 120.383 24.48V15.36H125.063V23.79C125.063 25.13 125.343 26.12 125.903 26.76C126.483 27.38 127.293 27.69 128.333 27.69C129.053 27.69 129.693 27.54 130.253 27.24C130.813 26.92 131.253 26.44 131.573 25.8C131.893 25.14 132.053 24.32 132.053 23.34V15.36H136.733V31.5H132.293V27.06L133.103 28.35C132.563 29.47 131.763 30.32 130.703 30.9C129.663 31.46 128.523 31.74 127.283 31.74ZM141.068 31.5V15.36H145.538V19.92L144.908 18.6C145.388 17.46 146.158 16.6 147.218 16.02C148.278 15.42 149.568 15.12 151.088 15.12V19.44C150.888 19.42 150.708 19.41 150.548 19.41C150.388 19.39 150.218 19.38 150.038 19.38C148.758 19.38 147.718 19.75 146.918 20.49C146.138 21.21 145.748 22.34 145.748 23.88V31.5H141.068ZM154.142 31.5V10.5H163.232C165.112 10.5 166.732 10.81 168.092 11.43C169.452 12.03 170.502 12.9 171.242 14.04C171.982 15.18 172.352 16.54 172.352 18.12C172.352 19.68 171.982 21.03 171.242 22.17C170.502 23.31 169.452 24.19 168.092 24.81C166.732 25.41 165.112 25.71 163.232 25.71H156.842L159.002 23.52V31.5H154.142ZM159.002 24.06L156.842 21.75H162.962C164.462 21.75 165.582 21.43 166.322 20.79C167.062 20.15 167.432 19.26 167.432 18.12C167.432 16.96 167.062 16.06 166.322 15.42C165.582 14.46 164.462 14.46 162.962 14.46H156.842L159.002 12.15V24.06ZM175.463 31.5V15.36H179.933V19.92L179.303 18.6C179.783 17.46 180.553 16.6 181.613 16.02C182.673 15.42 183.963 15.12 185.483 15.12V19.44C185.283 19.42 185.103 19.41 184.943 19.41C184.783 19.39 184.613 19.38 184.433 19.38C183.153 19.38 182.113 19.75 181.313 20.49C180.533 21.21 180.143 22.34 180.143 23.88V31.5H175.463ZM195.828 31.74C194.108 31.74 192.578 31.38 191.238 30.66C189.918 29.94 188.868 28.96 188.088 27.72C187.328 26.46 186.948 25.03 186.948 23.43C186.948 21.81 187.328 20.38 188.088 19.14C188.868 17.88 189.918 16.9 191.238 16.2C192.578 15.48 194.108 15.12 195.828 15.12C197.528 15.12 199.048 15.48 200.388 16.2C201.728 16.9 202.778 17.87 203.538 19.11C204.298 20.35 204.678 21.79 204.678 23.43C204.678 25.03 204.298 26.46 203.538 27.72C202.778 28.96 201.728 29.94 200.388 30.66C199.048 31.38 197.528 31.74 195.828 31.74ZM195.828 27.9C196.608 27.9 197.308 27.72 197.928 27.36C198.548 27 199.038 26.49 199.398 25.83C199.758 25.15 199.938 24.35 199.938 23.43C199.938 22.49 199.758 21.69 199.398 21.03C199.038 20.37 198.548 19.86 197.928 19.5C197.308 19.14 196.608 18.96 195.828 18.96C195.048 18.96 194.348 19.14 193.728 19.5C193.108 19.86 192.608 20.37 192.228 21.03C191.868 21.69 191.688 22.49 191.688 23.43C191.688 24.35 191.868 25.15 192.228 25.83C192.608 26.49 193.108 27 193.728 27.36C194.348 27.72 195.048 27.9 195.828 27.9ZM217.346 31.74C215.986 31.74 214.796 31.44 213.776 30.84C212.756 30.24 211.956 29.33 211.376 28.11C210.816 26.87 210.536 25.31 210.536 23.43C210.536 21.53 210.806 19.97 211.346 18.75C211.886 17.53 212.666 16.62 213.686 16.02C214.706 15.42 215.926 15.12 217.346 15.12C218.866 15.12 220.226 15.47 221.426 16.17C222.646 16.85 223.606 17.81 224.306 19.05C225.026 20.29 225.386 21.75 225.386 23.43C225.386 25.13 225.026 26.6 224.306 27.84C223.606 29.08 222.646 30.04 221.426 30.72C220.226 31.4 218.866 31.74 217.346 31.74ZM207.806 37.32V15.36H212.276V18.66L212.186 23.46L212.486 28.23V37.32H207.806ZM216.536 27.9C217.316 27.9 218.006 27.72 218.606 27.36C219.226 27 219.716 26.49 220.076 25.83C220.456 25.15 220.646 24.35 220.646 23.43C220.646 22.49 220.456 21.69 220.076 21.03C219.716 20.37 219.226 19.86 218.606 19.5C218.006 19.14 217.316 18.96 216.536 18.96C215.756 18.96 215.056 19.14 214.436 19.5C213.816 19.86 213.326 20.37 212.966 21.03C212.606 21.69 212.426 22.49 212.426 23.43C212.426 24.35 212.606 25.15 212.966 25.83C213.326 26.49 213.816 27 214.436 27.36C215.056 27.72 215.756 27.9 216.536 27.9ZM236.529 31.74C234.689 31.74 233.069 31.38 231.669 30.66C230.289 29.94 229.219 28.96 228.459 27.72C227.699 26.46 227.319 25.03 227.319 23.43C227.319 21.81 227.689 20.38 228.429 19.14C229.189 17.88 230.219 16.9 231.519 16.2C232.819 15.48 234.289 15.12 235.929 15.12C237.509 15.12 238.929 15.46 240.189 16.14C241.469 16.8 242.479 17.76 243.219 19.02C243.959 20.26 244.329 21.75 244.329 23.49C244.329 23.67 244.319 23.88 244.299 24.12C244.279 24.34 244.259 24.55 244.239 24.75H231.129V22.02H241.779L239.979 22.83C239.979 21.99 239.809 21.26 239.469 20.64C239.129 20.02 238.659 19.54 238.059 19.2C237.459 18.84 236.759 18.66 235.959 18.66C235.159 18.66 234.449 18.84 233.829 19.2C233.229 19.54 232.759 20.03 232.419 20.67C232.079 21.29 231.909 22.03 231.909 22.89V23.61C231.909 24.49 232.099 25.27 232.479 25.95C232.879 26.61 233.429 27.12 234.129 27.48C234.849 27.82 235.689 27.99 236.649 27.99C237.509 27.99 238.259 27.86 238.899 27.6C239.559 27.34 240.159 26.95 240.699 26.43L243.189 29.13C242.449 29.97 241.519 30.62 240.399 31.08C239.279 31.52 237.989 31.74 236.529 31.74ZM247.445 31.5V15.36H251.915V19.92L251.285 18.6C251.765 17.46 252.535 16.6 253.595 16.02C254.655 15.42 255.945 15.12 257.465 15.12V19.44C257.265 19.42 257.085 19.41 256.925 19.41C256.765 19.39 256.595 19.38 256.415 19.38C255.135 19.38 254.095 19.75 253.295 20.49C252.515 21.21 252.125 22.34 252.125 23.88V31.5H247.445ZM267.405 31.74C265.505 31.74 264.025 31.26 262.965 30.3C261.905 29.32 261.375 27.87 261.375 25.95V11.79H266.055V25.89C266.055 26.57 266.235 27.1 266.595 27.48C266.955 27.84 267.445 28.02 268.065 28.02C268.805 28.02 269.435 27.82 269.955 27.42L271.215 30.72C270.735 31.06 270.155 31.32 269.475 31.5C268.815 31.66 268.125 31.74 267.405 31.74ZM258.885 19.32V15.72H270.075V19.32H258.885ZM275.589 37.56C274.749 37.56 273.919 37.43 273.099 37.17C272.279 36.91 271.609 36.55 271.089 36.09L272.799 32.76C273.159 33.08 273.569 33.33 274.029 33.51C274.509 33.69 274.979 33.78 275.439 33.78C276.099 33.78 276.619 33.62 276.999 33.3C277.399 33 277.759 32.49 278.079 31.77L278.919 29.79L279.279 29.28L285.069 15.36H289.569L282.279 32.49C281.759 33.79 281.159 34.81 280.479 35.55C279.819 36.29 279.079 36.81 278.259 37.11C277.459 37.41 276.569 37.56 275.589 37.56ZM278.349 32.13L271.149 15.36H275.979L281.559 28.86L278.349 32.13Z" fill="white"/>
<path d="M154.28 43.686C154.438 43.686 154.569 43.742 154.672 43.854C154.774 43.966 154.826 44.1013 154.826 44.26V49.818C154.826 50.5367 154.658 51.1807 154.322 51.75C153.995 52.3193 153.552 52.772 152.992 53.108C152.432 53.4347 151.797 53.598 151.088 53.598C150.369 53.598 149.725 53.4347 149.156 53.108C148.596 52.772 148.152 52.3193 147.826 51.75C147.499 51.1807 147.336 50.5367 147.336 49.818V44.26C147.336 44.1013 147.387 43.966 147.49 43.854C147.602 43.742 147.746 43.686 147.924 43.686C148.073 43.686 148.204 43.742 148.316 43.854C148.437 43.966 148.498 44.1013 148.498 44.26V49.818C148.498 50.3313 148.614 50.7887 148.848 51.19C149.081 51.5913 149.394 51.9087 149.786 52.142C150.187 52.366 150.621 52.478 151.088 52.478C151.564 52.478 152.002 52.366 152.404 52.142C152.805 51.9087 153.127 51.5913 153.37 51.19C153.622 50.7887 153.748 50.3313 153.748 49.818V44.26C153.748 44.1013 153.794 43.966 153.888 43.854C153.981 43.742 154.112 43.686 154.28 43.686ZM160.677 46.08C161.312 46.08 161.811 46.2107 162.175 46.472C162.539 46.7333 162.796 47.0833 162.945 47.522C163.104 47.9607 163.183 48.4507 163.183 48.992V52.926C163.183 53.0847 163.127 53.22 163.015 53.332C162.912 53.444 162.782 53.5 162.623 53.5C162.464 53.5 162.329 53.444 162.217 53.332C162.114 53.22 162.063 53.0847 162.063 52.926V49.02C162.063 48.6653 162.007 48.348 161.895 48.068C161.792 47.7787 161.615 47.55 161.363 47.382C161.12 47.2047 160.784 47.116 160.355 47.116C159.963 47.116 159.604 47.2047 159.277 47.382C158.95 47.55 158.689 47.7787 158.493 48.068C158.297 48.348 158.199 48.6653 158.199 49.02V52.926C158.199 53.0847 158.143 53.22 158.031 53.332C157.928 53.444 157.798 53.5 157.639 53.5C157.48 53.5 157.345 53.444 157.233 53.332C157.13 53.22 157.079 53.0847 157.079 52.926V46.822C157.079 46.6633 157.13 46.5327 157.233 46.43C157.345 46.206 157.48 46.262 157.639 46.262C157.807 46.262 157.942 46.318 158.045 46.43C158.148 46.5327 158.199 46.6633 158.199 46.822V47.816L157.919 48.124C157.966 47.8813 158.073 47.6387 158.241 47.396C158.409 47.144 158.619 46.92 158.871 46.724C159.123 46.528 159.403 46.374 159.711 46.262C160.019 46.1407 160.341 46.08 160.677 46.08ZM166.487 52.926C166.487 53.0847 166.431 53.22 166.319 53.332C166.207 53.444 166.071 53.5 165.913 53.5C165.754 53.5 165.623 53.444 165.521 53.332C165.418 53.22 165.367 53.0847 165.367 52.926V43.7C165.367 43.5413 165.418 43.4107 165.521 43.308C165.633 43.196 165.768 43.14 165.927 43.14C166.095 43.14 166.23 43.196 166.333 43.308C166.435 43.4107 166.487 43.5413 166.487 43.7V52.926ZM169.737 52.926C169.737 53.0847 169.681 53.22 169.569 53.332C169.466 53.444 169.336 53.5 169.177 53.5C169.009 53.5 168.874 53.444 168.771 53.332C168.668 53.22 168.617 53.0847 168.617 52.926V46.71C168.617 46.5513 168.668 46.4207 168.771 46.318C168.883 46.206 169.018 46.15 169.177 46.15C169.336 46.15 169.466 46.206 169.569 46.318C169.681 46.4207 169.737 46.5513 169.737 46.71V52.926ZM169.177 45.212C168.944 45.212 168.771 45.1653 168.659 45.072C168.547 44.9787 168.491 44.834 168.491 44.638V44.442C168.491 44.246 168.552 44.1013 168.673 44.008C168.794 43.9147 168.967 43.868 169.191 43.868C169.415 43.868 169.583 43.9147 169.695 44.008C169.807 44.1013 169.863 44.246 169.863 44.442V44.638C169.863 44.834 169.802 44.9787 169.681 45.072C169.569 45.1653 169.401 45.212 169.177 45.212ZM172.421 53.5C172.253 53.5 172.118 53.444 172.015 53.332C171.912 53.22 171.861 53.0847 171.861 52.926V43.7C171.861 43.5413 171.912 43.4107 172.015 43.308C172.118 43.196 172.253 43.14 172.421 43.14C172.58 43.14 172.71 43.196 172.813 43.308C172.925 43.4107 172.981 43.5413 172.981 43.7V52.926C172.981 53.0847 172.925 53.22 172.813 53.332C172.71 53.444 172.58 53.5 172.421 53.5ZM177.069 46.22C177.218 46.22 177.344 46.2807 177.447 46.402C177.559 46.514 177.615 46.6307 177.615 46.752C177.615 46.9107 177.54 47.0507 177.391 47.172L172.855 51.134L172.813 49.832L176.677 46.388C176.789 46.276 176.92 46.22 177.069 46.22ZM177.223 53.486C177.064 53.486 176.924 53.4253 176.803 53.304L173.821 50.126L174.661 49.356L177.615 52.52C177.727 52.6413 177.783 52.7813 177.783 52.94C177.783 53.108 177.718 53.2433 177.587 53.346C177.456 53.4393 177.335 53.486 177.223 53.486ZM182.437 53.64C181.69 53.64 181.037 53.4813 180.477 53.164C179.917 52.8467 179.478 52.4127 179.161 51.862C178.853 51.302 178.699 50.658 178.699 49.93C178.699 49.118 178.857 48.4273 179.175 47.858C179.501 47.2793 179.921 46.8407 180.435 46.542C180.957 46.234 181.508 46.08 182.087 46.08C182.516 46.08 182.931 46.1593 183.333 46.318C183.734 46.4767 184.089 46.71 184.397 47.018C184.705 47.3167 184.952 47.6807 185.139 48.11C185.325 48.53 185.423 49.0013 185.433 49.524C185.433 49.6733 185.377 49.7993 185.265 49.902C185.153 50.0047 185.022 50.056 184.873 50.056H179.343L179.091 49.09H184.481L184.257 49.286V48.978C184.219 48.5953 184.089 48.2687 183.865 47.998C183.65 47.718 183.384 47.5033 183.067 47.354C182.759 47.2047 182.432 47.13 182.087 47.13C181.807 47.13 181.527 47.1813 181.247 47.284C180.976 47.3773 180.729 47.536 180.505 47.76C180.29 47.9747 180.113 48.2547 179.973 48.6C179.842 48.9453 179.777 49.3607 179.777 49.846C179.777 50.3873 179.884 50.8633 180.099 51.274C180.323 51.6847 180.631 52.0113 181.023 52.254C181.415 52.4873 181.872 52.604 182.395 52.604C182.721 52.604 183.006 52.562 183.249 52.478C183.491 52.394 183.701 52.2913 183.879 52.17C184.056 52.0393 184.205 51.9087 184.327 51.778C184.448 51.694 184.565 51.652 184.677 51.652C184.817 51.652 184.929 51.6987 185.013 51.792C185.106 51.8853 185.153 51.9973 185.153 52.128C185.153 52.2867 185.078 52.4267 184.929 52.548C184.667 52.8373 184.313 53.094 183.865 53.318C183.417 53.5327 182.941 53.64 182.437 53.64ZM191.728 43.7H196.712C196.87 43.7 197.006 43.7513 197.118 43.854C197.23 43.9567 197.286 44.0873 197.286 44.246C197.286 44.4047 197.23 44.5353 197.118 44.638C197.006 44.7313 196.87 44.778 196.712 44.778H192.204L192.33 44.54V48.082L192.19 47.928H196.082C196.24 47.928 196.376 47.9793 196.488 48.082C196.6 48.1847 196.656 48.3153 196.656 48.474C196.656 48.6327 196.6 48.7633 196.488 48.866C196.376 48.9593 196.24 49.006 196.082 49.006H192.232L192.33 48.88V52.506L192.246 52.408H196.712C196.87 52.408 197.006 52.464 197.118 52.576C197.23 52.688 197.286 52.814 197.286 52.954C197.286 53.1127 197.23 53.2433 197.118 53.346C197.006 53.4487 196.87 53.5 196.712 53.5H191.728C191.569 53.5 191.434 53.444 191.322 53.332C191.219 53.22 191.168 53.0847 191.168 52.926V44.26C191.168 44.1013 191.219 43.9707 191.322 43.868C191.434 43.756 191.569 43.7 191.728 43.7ZM198.751 46.136C198.863 46.136 198.97 46.1687 199.073 46.234C199.176 46.29 199.25 46.374 199.297 46.486L201.621 51.946L201.397 52.058L203.763 46.5C203.866 46.248 204.038 46.1267 204.281 46.136C204.421 46.136 204.542 46.1827 204.645 46.276C204.748 46.3693 204.799 46.486 204.799 46.626C204.799 46.682 204.79 46.738 204.771 46.794C204.762 46.8407 204.748 46.8827 204.729 46.92L202.027 53.136C201.924 53.3693 201.761 53.4907 201.537 53.5C201.416 53.5093 201.299 53.486 201.187 53.43C201.084 53.3647 201.01 53.2667 200.963 53.136L198.261 46.934C198.242 46.8967 198.224 46.8547 198.205 46.808C198.196 46.7613 198.191 46.7053 198.191 46.64C198.191 46.5187 198.238 46.4067 198.331 46.304C198.434 46.192 198.574 46.136 198.751 46.136ZM209.589 53.64C208.842 53.64 208.189 53.4813 207.629 53.164C207.069 52.8467 206.63 52.4127 206.313 51.862C206.005 51.302 205.851 50.658 205.851 49.93C205.851 49.118 206.01 48.4273 206.327 47.858C206.654 47.2793 207.074 46.8407 207.587 46.542C208.11 46.234 208.66 46.08 209.239 46.08C209.668 46.08 210.084 46.1593 210.485 46.318C210.886 46.4767 211.241 46.71 211.549 47.018C211.857 47.3167 212.104 47.6807 212.291 48.11C212.478 48.53 212.576 49.0013 212.585 49.524C212.585 49.6733 212.529 49.7993 212.417 49.902C212.305 50.0047 212.174 50.056 212.025 50.056H206.495L206.243 49.09H211.633L211.409 49.286V48.978C211.372 48.5953 211.241 48.2687 211.017 47.998C210.802 47.718 210.536 47.5033 210.219 47.354C209.911 47.2047 209.584 47.13 209.239 47.13C208.959 47.13 208.679 47.1813 208.399 47.284C208.128 47.3773 207.881 47.536 207.657 47.76C207.442 47.9747 207.265 48.2547 207.125 48.6C206.994 48.9453 206.929 49.3607 206.929 49.846C206.929 50.3873 207.036 50.8633 207.251 51.274C207.475 51.6847 207.783 52.0113 208.175 52.254C208.567 52.4873 209.024 52.604 209.547 52.604C209.874 52.604 210.158 52.562 210.401 52.478C210.644 52.394 210.854 52.2913 211.031 52.17C211.208 52.0393 211.358 51.9087 211.479 51.778C211.6 51.694 211.717 51.652 211.829 51.652C211.969 51.652 212.081 51.6987 212.165 51.792C212.258 51.8853 212.305 51.9973 212.305 52.128C212.305 52.2867 212.23 52.4267 212.081 52.548C211.82 52.8373 211.465 53.094 211.017 53.318C210.569 53.5327 209.093 53.64 209.589 53.64ZM214.828 53.5C214.67 53.5 214.534 53.444 214.422 53.332C214.32 53.22 214.268 53.0847 214.268 52.926V46.822C214.268 46.6633 214.32 46.5327 214.422 46.43C214.534 46.318 214.67 46.262 214.828 46.262C214.996 46.262 215.132 46.318 215.234 46.43C215.337 46.5327 215.388 46.6633 215.388 46.822V48.67L215.22 48.376C215.276 48.0867 215.374 47.8067 215.514 47.536C215.664 47.256 215.85 47.0087 216.074 46.794C216.298 46.57 216.555 46.3973 216.844 46.276C217.134 46.1453 217.451 46.08 217.796 46.08C218.002 46.08 218.188 46.1313 218.356 46.234C218.534 46.3273 218.622 46.4627 218.622 46.64C218.622 46.836 218.571 46.9807 218.468 47.074C218.366 47.1673 218.249 47.214 218.118 47.214C217.997 47.214 217.88 47.1907 217.768 47.144C217.656 47.088 217.516 47.06 217.348 47.06C217.115 47.06 216.882 47.1253 216.648 47.256C216.424 47.3773 216.214 47.5547 216.018 47.788C215.832 48.0213 215.678 48.2873 215.556 48.586C215.444 48.8753 215.388 49.188 215.388 49.524V52.926C215.388 53.0847 215.332 53.22 215.22 53.332C215.118 53.444 214.987 53.5 214.828 53.5ZM225.306 46.15C225.464 46.15 225.595 46.206 225.698 46.318C225.81 46.4207 225.866 46.5513 225.866 46.71V52.814C225.866 53.598 225.712 54.2467 225.404 54.76C225.096 55.2827 224.68 55.67 224.158 55.922C223.644 56.174 223.061 56.3 222.408 56.3C222.044 56.3 221.694 56.2627 221.358 56.188C221.022 56.1133 220.746 56.0153 220.532 55.894C220.354 55.81 220.228 55.7027 220.154 55.572C220.088 55.45 220.079 55.32 220.126 55.18C220.191 55.012 220.284 54.8953 220.406 54.83C220.536 54.7647 220.672 54.7647 220.812 54.83C220.961 54.8953 221.176 54.984 221.456 55.096C221.745 55.2173 222.067 55.278 222.422 55.278C222.907 55.278 223.322 55.1847 223.668 54.998C224.013 54.8113 224.279 54.536 224.466 54.172C224.652 53.8173 224.746 53.374 224.746 52.842V51.848L224.914 52.198C224.764 52.4873 224.564 52.7393 224.312 52.954C224.06 53.1687 223.77 53.3367 223.444 53.458C223.117 53.5793 222.758 53.64 222.366 53.64C221.834 53.64 221.381 53.528 221.008 53.304C220.644 53.0707 220.364 52.7533 220.168 52.352C219.981 51.9413 219.888 51.47 219.888 50.938V46.71C219.888 46.5513 219.939 46.4207 220.042 46.318C220.154 46.206 220.289 46.15 220.448 46.15C220.616 46.15 220.751 46.206 220.854 46.318C220.956 46.4207 221.008 46.5513 221.008 46.71V50.686C221.008 51.3207 221.148 51.8013 221.428 52.128C221.708 52.4453 222.142 52.604 222.73 52.604C223.103 52.604 223.439 52.52 223.738 52.352C224.046 52.184 224.288 51.9553 224.466 51.666C224.652 51.3673 224.746 51.0407 224.746 50.686V46.71C224.746 46.5513 224.797 46.4207 224.9 46.318C225.002 46.206 225.138 46.15 225.306 46.15ZM227.66 46.304H230.95C231.1 46.304 231.221 46.3553 231.314 46.458C231.417 46.5607 231.468 46.682 231.468 46.822C231.468 46.9713 231.417 47.0973 231.314 47.2C231.221 47.2933 231.1 47.34 230.95 47.34H227.66C227.52 47.34 227.399 47.2887 227.296 47.186C227.194 47.0833 227.142 46.9573 227.142 46.808C227.142 46.668 227.194 46.5513 227.296 46.458C227.399 46.3553 227.52 46.304 227.66 46.304ZM229.13 44.4C229.289 44.4 229.42 44.456 229.522 44.568C229.625 44.6707 229.676 44.8013 229.676 44.96V51.722C229.676 51.946 229.709 52.114 229.774 52.226C229.84 52.338 229.924 52.4173 230.026 52.464C230.138 52.5013 230.246 52.52 230.348 52.52C230.442 52.52 230.521 52.506 230.586 52.478C230.661 52.4407 230.745 52.422 230.838 52.422C230.932 52.422 231.016 52.4687 231.09 52.562C231.174 52.646 231.216 52.758 231.216 52.898C231.216 53.066 231.118 53.2107 230.922 53.332C230.726 53.444 230.507 53.5 230.264 53.5C230.134 53.5 229.97 53.4907 229.774 53.472C229.588 53.4533 229.401 53.3927 229.214 53.29C229.028 53.1873 228.869 53.0193 228.738 52.786C228.617 52.5433 228.556 52.2073 228.556 51.778V44.96C228.556 44.8013 228.612 44.6707 228.724 44.568C228.836 44.456 228.972 44.4 229.13 44.4ZM236.526 46.15C237.142 46.15 237.628 46.2853 237.982 46.556C238.346 46.8173 238.603 47.172 238.752 47.62C238.911 48.0587 238.99 48.5487 238.99 49.09V52.926C238.99 53.0847 238.934 53.22 238.822 53.332C238.72 53.444 238.589 53.5 238.43 53.5C238.272 53.5 238.136 53.444 238.024 53.332C237.922 53.22 237.87 53.0847 237.87 52.926V49.09C237.87 48.7353 237.819 48.418 237.716 48.138C237.614 47.8487 237.441 47.62 237.198 47.452C236.965 47.2747 236.643 47.186 236.232 47.186C235.85 47.186 235.5 47.2747 235.182 47.452C234.865 47.62 234.613 47.8487 234.426 48.138C234.24 48.418 234.146 48.7353 234.146 49.09V52.926C234.146 53.0847 234.09 53.22 233.978 53.332C233.876 53.444 233.745 53.5 233.586 53.5C233.428 53.5 233.292 53.444 233.18 53.332C233.078 53.22 233.026 53.0847 233.026 52.926V43.7C233.026 43.5413 233.078 43.4107 233.18 43.308C233.292 43.196 233.428 43.14 233.586 43.14C233.754 43.14 233.89 43.196 233.992 43.308C234.095 43.4107 234.146 43.5413 234.146 43.7V47.886L233.866 48.194C233.913 47.9513 234.016 47.7087 234.174 47.466C234.333 47.214 234.534 46.99 234.776 46.794C235.019 46.598 235.29 46.444 235.588 46.332C235.887 46.2107 236.2 46.15 236.526 46.15ZM242.143 52.926C242.143 53.0847 242.087 53.22 241.975 53.332C241.873 53.444 241.742 53.5 241.583 53.5C241.415 53.5 241.28 53.444 241.177 53.332C241.075 53.22 241.023 53.0847 241.023 52.926V46.71C241.023 46.5513 241.075 46.4207 241.177 46.318C241.289 46.206 241.425 46.15 241.583 46.15C241.742 46.15 241.873 46.206 241.975 46.318C242.087 46.4207 242.143 46.5513 242.143 46.71V52.926ZM241.583 45.212C241.35 45.212 241.177 45.1653 241.065 45.072C240.953 44.9787 240.897 44.834 240.897 44.638V44.442C240.897 44.246 240.958 44.1013 241.079 44.008C241.201 43.9147 241.373 43.868 241.597 43.868C241.821 43.868 241.989 43.9147 242.101 44.008C242.213 44.1013 242.269 44.246 242.269 44.442V44.638C242.269 44.834 242.209 44.9787 242.087 45.072C241.975 45.1653 241.807 45.212 241.583 45.212ZM247.753 46.08C248.388 46.08 248.887 46.2107 249.251 46.472C249.615 46.7333 249.872 47.0833 250.021 47.522C250.18 47.9607 250.259 48.4507 250.259 48.992V52.926C250.259 53.0847 250.203 53.22 250.091 53.332C249.988 53.444 249.858 53.5 249.699 53.5C249.54 53.5 249.405 53.444 249.293 53.332C249.19 53.22 249.139 53.0847 249.139 52.926V49.02C249.139 48.6653 249.083 48.348 248.971 48.068C248.868 47.7787 248.691 47.55 248.439 47.382C248.196 47.2047 247.86 47.116 247.431 47.116C247.039 47.116 246.68 47.2047 246.353 47.382C246.026 47.55 246.765 47.7787 245.569 48.068C245.373 48.348 245.275 48.6653 245.275 49.02V52.926C245.275 53.0847 245.219 53.22 245.107 53.332C245.004 53.444 244.874 53.5 244.715 53.5C244.556 53.5 244.421 53.444 244.309 53.332C244.206 53.22 244.155 53.0847 244.155 52.926V46.822C244.155 46.6633 244.206 46.5327 244.309 46.43C244.421 46.318 244.556 46.262 244.715 46.262C244.883 46.262 245.018 46.318 245.121 46.43C245.224 46.5327 245.275 46.6633 245.275 46.822V47.816L244.995 48.124C245.042 47.8813 245.149 47.6387 245.317 47.396C245.485 47.144 245.695 46.92 245.947 46.724C246.199 46.528 246.479 46.374 246.787 46.262C247.095 46.1407 247.417 46.08 247.753 46.08ZM255.369 46.08C255.77 46.08 256.144 46.15 256.489 46.29C256.834 46.4207 257.133 46.5933 257.385 46.808C257.646 47.0227 257.847 47.2467 257.987 47.48C258.136 47.7133 258.211 47.9327 258.211 48.138L257.945 47.97V46.752C257.945 46.5933 257.996 46.4627 258.099 46.36C258.202 46.248 258.337 46.192 258.505 46.192C258.664 46.192 258.794 46.248 258.897 46.36C259.009 46.4627 259.065 46.5933 259.065 46.752V52.884C259.065 53.6493 258.902 54.284 258.575 54.788C258.258 55.292 257.828 55.67 257.287 55.922C256.746 56.174 256.139 56.3 255.467 56.3C255.187 56.3 254.879 56.2627 254.543 56.188C254.207 56.1133 253.908 56.02 253.647 55.908C253.386 55.8053 253.218 55.698 253.143 55.586C253.003 55.4927 252.914 55.3853 252.877 55.264C252.849 55.152 252.872 55.0447 252.947 54.942C253.031 54.8113 253.138 54.746 253.269 54.746C253.409 54.746 253.582 54.788 253.787 54.872C253.871 54.9 254.002 54.9467 254.179 55.012C254.366 55.0773 254.571 55.1333 254.795 55.18C255.028 55.236 255.257 55.264 255.481 55.264C256.274 55.264 256.881 55.054 257.301 54.634C257.73 54.2233 257.945 53.6773 257.945 52.996V51.694L258.099 51.764C258.043 52.0253 257.926 52.268 257.749 52.492C257.581 52.716 257.371 52.9167 257.119 53.094C256.876 53.262 256.606 53.3973 256.307 53.5C256.008 53.5933 255.705 53.64 255.397 53.64C254.744 53.64 254.156 53.4767 253.633 53.15C253.11 52.8233 252.695 52.3753 252.387 51.806C252.088 51.2367 251.939 50.588 251.939 49.86C251.939 49.1227 252.088 48.4693 252.387 47.9C252.695 47.3307 253.106 46.8873 253.619 46.57C254.142 46.2433 254.725 46.08 255.369 46.08ZM255.509 47.116C255.033 47.116 254.604 47.2373 254.221 47.48C253.848 47.7133 253.554 48.0353 253.339 48.446C253.134 48.8567 253.031 49.328 253.031 49.86C253.031 50.3733 253.134 50.84 253.339 51.26C253.554 51.6707 253.848 51.9973 254.221 52.24C254.604 52.4827 255.033 52.604 255.509 52.604C255.994 52.604 256.424 52.4873 256.797 52.254C257.17 52.0113 257.464 51.6847 257.679 51.274C257.894 50.8633 258.001 50.392 258.001 49.86C258.001 49.3187 257.894 48.8427 257.679 48.432C257.464 48.0213 257.17 47.6993 256.797 47.466C256.424 47.2327 255.994 47.116 255.509 47.116ZM265.747 43.7H270.731C270.89 43.7 271.025 43.7513 271.137 43.854C271.249 43.9567 271.305 44.0873 271.305 44.246C271.305 44.4047 271.249 44.5353 271.137 44.638C271.025 44.7313 270.89 44.778 270.731 44.778H266.223L266.349 44.54V48.082L266.209 47.928H270.101C270.26 47.928 270.395 47.9793 270.507 48.082C270.619 48.1847 270.675 48.3153 270.675 48.474C270.675 48.6327 270.619 48.7633 270.507 48.866C270.395 48.9593 270.26 49.006 270.101 49.006H266.251L266.349 48.88V52.506L266.265 52.408H270.731C270.89 52.408 271.025 52.464 271.137 52.576C271.249 52.688 271.305 52.814 271.305 52.954C271.305 53.1127 271.249 53.2433 271.137 53.346C271.025 53.4487 270.89 53.5 270.731 53.5H265.747C265.588 53.5 265.453 53.444 265.341 53.332C265.238 53.22 265.187 53.0847 265.187 52.926V44.26C265.187 44.1013 265.238 43.9707 265.341 43.868C265.453 43.756 265.588 43.7 265.747 43.7ZM274.207 52.926C274.207 53.0847 274.151 53.22 274.039 53.332C273.927 53.444 273.792 53.5 273.633 53.5C273.475 53.5 273.344 53.444 273.241 53.332C273.139 53.22 273.087 53.0847 273.087 52.926V43.7C273.087 43.5413 273.139 43.4107 273.241 43.308C273.353 43.196 273.489 43.14 273.647 43.14C273.815 43.14 273.951 43.196 274.053 43.308C274.156 43.4107 274.207 43.5413 274.207 43.7V52.926ZM275.974 52.352C275.89 52.2307 275.852 52.1047 275.862 51.974C275.871 51.834 275.95 51.7127 276.1 51.61C276.193 51.5447 276.3 51.5167 276.422 51.526C276.552 51.5353 276.669 51.596 276.772 51.708C277.033 52.016 277.332 52.2633 277.668 52.45C278.004 52.6273 278.414 52.716 278.9 52.716C279.124 52.7067 279.348 52.6693 279.572 52.604C279.796 52.5387 279.982 52.4267 280.132 52.268C280.29 52.1 280.37 51.8807 280.37 51.61C280.37 51.3487 280.29 51.1433 280.132 50.994C279.973 50.8353 279.768 50.7093 279.516 50.616C279.264 50.5133 278.988 50.4247 278.69 50.35C278.382 50.266 278.078 50.1727 277.78 50.07C277.481 49.958 277.21 49.8227 276.968 49.664C276.734 49.496 276.543 49.2907 276.394 49.048C276.254 48.796 276.184 48.4927 276.184 48.138C276.184 47.718 276.296 47.354 276.52 47.046C276.753 46.738 277.061 46.5 277.444 46.332C277.836 46.164 278.26 46.08 278.718 46.08C278.979 46.08 279.25 46.1127 279.53 46.178C279.819 46.234 280.099 46.3367 280.37 46.486C280.64 46.626 280.878 46.822 281.084 47.074C281.168 47.1673 281.214 47.284 281.224 47.424C281.233 47.564 281.172 47.69 281.042 47.802C280.939 47.8767 280.822 47.9093 280.692 47.9C280.57 47.8907 280.468 47.844 280.384 47.76C280.188 47.5267 279.94 47.3493 279.642 47.228C279.352 47.0973 279.03 47.032 278.676 47.032C278.452 47.032 278.232 47.0647 278.018 47.13C277.803 47.1953 277.621 47.3073 277.472 47.466C277.332 47.6153 277.262 47.8253 277.262 48.096C277.271 48.348 277.355 48.5533 277.514 48.712C277.672 48.8707 277.887 49.0013 278.158 49.104C278.428 49.1973 278.727 49.2907 279.054 49.384C279.352 49.4587 279.637 49.5473 279.908 49.65C280.188 49.7433 280.44 49.8693 280.664 50.028C280.888 50.1867 281.065 50.392 281.196 50.644C281.326 50.8867 281.392 51.1947 281.392 51.568C281.392 51.9973 281.27 52.3707 281.028 52.688C280.785 52.996 280.463 53.234 280.062 53.402C279.67 53.5607 279.245 53.64 278.788 53.64C278.274 53.64 277.766 53.542 277.262 53.346C276.767 53.15 276.338 52.8187 275.974 52.352ZM286.357 53.64C285.61 53.64 284.957 53.4813 284.397 53.164C283.837 52.8467 283.398 52.4127 283.081 51.862C282.773 51.302 282.619 50.658 282.619 49.93C282.619 49.118 282.777 48.4273 283.095 47.858C283.421 47.2793 283.841 46.8407 284.355 46.542C284.877 46.234 285.428 46.08 286.007 46.08C286.436 46.08 286.851 46.1593 287.253 46.318C287.654 46.4767 288.009 46.71 288.317 47.018C288.625 47.3167 288.872 47.6807 289.059 48.11C289.245 48.53 289.343 49.0013 289.353 49.524C289.353 49.6733 289.297 49.7993 289.185 49.902C289.073 50.0047 288.942 50.056 288.793 50.056H283.263L283.011 49.09H288.401L288.177 49.286V48.978C288.139 48.5953 288.009 48.2687 287.785 47.998C287.57 47.718 287.304 47.5033 286.987 47.354C286.679 47.2047 286.352 47.13 286.007 47.13C285.727 47.13 285.447 47.1813 285.167 47.284C284.896 47.3773 284.649 47.536 284.425 47.76C284.21 47.9747 284.033 48.2547 283.893 48.6C283.762 48.9453 283.697 49.3607 283.697 49.846C283.697 50.3873 283.804 50.8633 284.019 51.274C284.243 51.6847 284.551 52.0113 284.943 52.254C285.335 52.4873 285.792 52.604 286.315 52.604C286.641 52.604 286.926 52.562 287.169 52.478C287.411 52.394 287.621 52.2913 287.799 52.17C287.976 52.0393 288.125 51.9087 288.247 51.778C288.368 51.694 288.485 51.652 288.597 51.652C288.737 51.652 288.849 51.6987 288.933 51.792C289.026 51.8853 289.073 51.9973 289.073 52.128C289.073 52.2867 288.998 52.4267 288.849 52.548C288.587 52.8373 288.233 53.094 287.785 53.318C287.337 53.5327 286.861 53.64 286.357 53.64Z" fill="white"/>
<defs>
<linearGradient id="paint0_linear_879_597" x1="36.5" y1="0" x2="36.5" y2="60" gradientUnits="userSpaceOnUse">
<stop stop-color="white"/>
</linearGradient>
<linearGradient id="paint1_linear_879_597" x1="36.5" y1="0" x2="36.5" y2="60" gradientUnits="userSpaceOnUse">
<stop stop-color="white"/>
</linearGradient>
<linearGradient id="paint2_linear_879_597" x1="36.5" y1="0" x2="36.5" y2="60" gradientUnits="userSpaceOnUse">
<stop stop-color="white"/>
</linearGradient>
</defs>
</svg>