<?xml version="1.0" standalone="no"?>
<!DOCTYPE svg PUBLIC "-//W3C//DTD SVG 20010904//EN"
 "http://www.w3.org/TR/2001/REC-SVG-20010904/DTD/svg10.dtd">
<svg version="1.0" xmlns="http://www.w3.org/2000/svg"
 width="1024.000000pt" height="1024.000000pt" viewBox="0 0 1024.000000 1024.000000"
 preserveAspectRatio="xMidYMid meet">

<g transform="translate(0.000000,1024.000000) scale(0.100000,-0.100000)"
fill="#000000" stroke="none">
<path d="M2214 6531 c-21 -16 -185 -172 -364 -347 -179 -176 -412 -402 -518
-502 -110 -105 -195 -194 -198 -208 -9 -34 14 -82 47 -99 48 -25 76 -19 129
31 l49 46 3 -511 3 -511 27 -27 27 -26 849 0 c617 1 855 4 871 12 36 20 49 52
66 173 12 85 15 152 11 250 -12 265 -18 638 -10 638 4 0 29 -20 55 -45 50 -47
81 -55 122 -33 12 6 27 18 34 27 18 23 16 82 -5 112 -9 14 -127 133 -262 265
-564 550 -790 765 -815 774 -44 17 -80 11 -121 -19z m-24 -44 c0 -2 -10 -12
-22 -23 l-23 -19 19 23 c18 21 26 27 26 19z m533 -566 l297 -284 0 -515 c0
-466 -2 -517 -17 -534 -15 -17 -51 -18 -728 -18 -540 0 -714 3 -723 12 -22 22
-13 681 14 995 l6 73 360 340 360 340 67 -62 c36 -34 200 -190 364 -347z m-2
252 c13 -16 12 -17 -3 -4 -10 7 -18 15 -18 17 0 8 8 3 21 -13z m-1401 -737 c0
-2 -8 -10 -17 -17 -16 -13 -17 -12 -4 4 13 16 21 21 21 13z m207 -258 c-3 -8
-6 -5 -6 6 -1 11 2 17 5 13 3 -3 4 -12 1 -19z"/>
<path d="M1979 5536 c-2 -2 -3 -61 -1 -130 l3 -126 87 0 c48 0 104 -3 125 -6
l37 -7 0 130 0 130 -37 7 c-42 7 -207 8 -214 2z"/>
<path d="M2370 5409 l0 -126 112 -7 c62 -4 116 -8 121 -9 7 -2 23 252 15 254
-2 0 -58 4 -126 7 l-122 7 0 -126z m17 -111 c-3 -8 -6 -5 -6 6 -1 11 2 17 5
13 3 -3 4 -12 1 -19z"/>
<path d="M1980 5037 l0 -124 46 -7 c26 -3 82 -6 126 -6 l79 0 -3 128 -3 127
-122 3 -123 3 0 -124z"/>
<path d="M2369 5154 c-1 -16 3 -239 4 -240 1 -1 57 -5 125 -9 l122 -7 0 126 0
126 -64 0 c-34 0 -91 3 -125 6 -34 4 -61 3 -62 -2z"/>
<path d="M3672 5978 c-14 -14 -17 -934 -4 -956 6 -9 34 -12 103 -10 l94 3 5
338 5 339 67 -124 c37 -68 96 -177 131 -243 60 -111 68 -120 97 -123 17 -2 38
2 45 8 8 7 61 100 119 208 57 109 116 217 130 242 l26 45 2 -345 3 -345 103
-3 102 -3 0 491 0 490 -123 0 -122 0 -139 -256 -139 -255 -32 58 c-17 32 -76
141 -129 243 -54 102 -103 191 -108 198 -14 16 -219 17 -236 0z"/>
<path d="M5677 5983 c-4 -3 -7 -224 -7 -490 l0 -483 94 0 c75 0 96 3 107 16
10 12 15 62 19 178 l5 161 125 6 c194 10 266 42 328 148 25 43 27 54 27 156 0
99 -3 115 -27 160 -45 87 -84 111 -220 139 -79 16 -437 24 -451 9z m422 -172
c51 -28 70 -165 31 -229 -25 -41 -54 -52 -157 -59 l-83 -6 0 150 c0 82 3 153
8 157 11 12 175 1 201 -13z"/>
<path d="M6790 5712 c-19 -11 -51 -40 -70 -66 l-35 -47 -9 56 -9 55 -89 0 -88
0 2 -347 3 -348 98 -3 97 -3 0 189 c0 212 11 270 58 315 21 21 43 29 83 33 77
9 94 23 107 86 12 63 4 83 -39 92 -50 10 -72 7 -109 -12z"/>
<path d="M7240 5717 c-115 -33 -201 -103 -243 -195 -26 -58 -35 -192 -18 -268
17 -73 80 -165 139 -202 159 -102 385 -75 506 59 63 70 87 140 88 254 1 125
-23 185 -102 259 -38 35 -80 62 -117 76 -71 27 -191 35 -253 17z m151 -157
c73 -20 119 -99 119 -202 0 -75 -24 -132 -69 -171 -39 -33 -69 -41 -122 -34
-84 11 -141 81 -147 181 -11 164 85 263 219 226z"/>
<path d="M8155 5721 c-45 -12 -87 -36 -115 -66 l-25 -27 -5 39 -5 38 -80 0
-80 0 0 -490 0 -490 83 -3 c53 -2 89 1 98 9 11 9 14 47 14 175 l0 163 28 -26
c39 -37 84 -53 149 -53 74 0 117 12 175 49 98 62 158 187 158 330 0 154 -73
278 -197 333 -48 21 -153 31 -198 19z m117 -186 c54 -36 78 -91 77 -180 0 -84
-27 -148 -79 -182 -61 -42 -189 -24 -225 31 -11 16 -14 55 -12 153 2 131 2
132 32 163 17 18 39 36 50 41 34 15 115 2 157 -26z"/>
<path d="M8821 5714 c-107 -29 -153 -89 -159 -209 -5 -112 27 -145 192 -201
85 -29 114 -48 126 -80 13 -33 -1 -59 -42 -80 -39 -20 -76 -13 -140 26 -26 17
-57 30 -67 30 -21 0 -81 -69 -81 -92 0 -46 132 -110 242 -116 73 -4 83 -2 144
28 90 44 118 87 122 189 4 72 2 78 -27 118 -32 44 -98 84 -208 124 -74 27 -83
35 -83 70 0 60 81 77 166 34 27 -14 55 -25 62 -25 16 0 66 106 58 125 -12 32
-142 76 -219 74 -18 0 -56 -7 -86 -15z"/>
<path d="M4830 5696 c0 -15 123 -313 209 -505 28 -62 51 -125 51 -140 0 -14
-26 -82 -56 -151 -31 -69 -59 -138 -61 -153 l-5 -28 98 7 c55 4 104 12 110 18
16 16 394 936 394 959 0 4 -48 6 -107 5 l-108 -3 -75 -229 -76 -229 -85 229
-86 229 -101 3 c-84 2 -102 0 -102 -12z"/>
<path d="M5367 4398 l2 -233 35 -3 35 -3 3 93 3 93 65 6 c79 6 114 23 140 64
28 45 27 123 -2 160 -33 42 -76 55 -185 55 l-98 0 2 -232z m201 156 c17 -12
22 -25 22 -59 0 -62 -26 -85 -97 -85 l-53 0 0 80 0 80 53 0 c31 0 61 -6 75
-16z"/>
<path d="M6828 4616 c-62 -23 -87 -44 -115 -99 -20 -40 -27 -67 -27 -117 -2
-108 43 -186 128 -226 73 -34 137 -32 215 7 l62 31 -3 96 -3 97 -30 3 c-16 2
-53 1 -82 -3 -48 -6 -53 -9 -53 -31 0 -22 4 -24 53 -24 l52 0 -3 -56 c-4 -53
-6 -57 -38 -70 -103 -43 -212 24 -230 143 -22 145 107 244 243 188 41 -17 39
-18 48 16 5 21 2 27 -22 38 -42 20 -151 24 -195 7z"/>
<path d="M3675 4390 l0 -230 38 0 37 0 0 99 0 99 29 4 c28 4 34 -2 98 -96 64
-95 70 -101 106 -104 20 -2 37 -1 37 2 0 3 -31 49 -69 103 l-69 98 32 16 c59
31 70 56 67 143 -1 19 -13 40 -37 62 l-35 34 -117 0 -117 0 0 -230z m215 155
c28 -25 26 -76 -4 -104 -16 -15 -41 -24 -80 -28 l-56 -6 0 75 c0 41 3 78 8 82
13 14 111 0 132 -19z"/>
<path d="M4827 4574 c-4 -4 -7 -22 -7 -41 0 -26 -4 -33 -19 -33 -20 0 -35 -25
-25 -41 3 -5 13 -9 24 -9 16 0 18 -12 21 -126 4 -123 5 -126 32 -150 44 -38
127 -30 127 12 0 8 -18 14 -47 16 l-48 3 -3 127 -3 127 38 3 c52 4 52 32 1 36
-35 3 -37 5 -40 40 -2 28 -8 38 -23 40 -12 2 -24 0 -28 -4z m-10 -100 c-3 -3
-12 -4 -19 -1 -8 3 -5 6 6 6 11 1 17 -2 13 -5z"/>
<path d="M4155 4495 c-132 -48 -142 -258 -15 -323 37 -19 56 -23 103 -19 32 3
69 12 82 21 22 14 23 19 12 37 -8 14 -18 18 -32 13 -43 -14 -97 -16 -126 -4
-31 13 -59 55 -59 90 0 19 6 20 120 20 l120 0 0 35 c0 52 -24 102 -58 119 -45
23 -102 28 -147 11z m89 -14 c4 -5 -3 -7 -14 -4 -23 6 -26 13 -6 13 8 0 17 -4
20 -9z m31 -46 c14 -13 25 -33 25 -45 0 -19 -6 -20 -91 -20 -89 0 -90 0 -84
23 19 64 104 89 150 42z"/>
<path d="M4545 4503 c-11 -3 -27 -12 -36 -19 -14 -13 -17 -13 -22 1 -4 8 -16
15 -27 15 -19 0 -20 -6 -20 -170 l0 -170 30 0 30 0 0 125 c0 120 1 127 25 150
14 15 36 25 52 25 61 0 73 -30 73 -179 l0 -121 30 0 30 0 0 129 c0 70 -5 143
-11 161 -17 48 -82 70 -154 53z"/>
<path d="M5771 4500 c-52 -11 -53 -12 -45 -34 6 -15 16 -17 73 -11 59 6 70 4
94 -15 33 -26 35 -48 5 -54 -111 -23 -131 -30 -163 -61 -37 -34 -44 -69 -26
-118 19 -50 125 -67 179 -28 32 22 43 26 41 14 -4 -22 3 -31 26 -35 l25 -5 0
133 c0 74 -5 144 -11 157 -22 49 -111 74 -198 57z m62 -17 c-7 -2 -19 -2 -25
0 -7 3 -2 5 12 5 14 0 19 -2 13 -5z m87 -177 c0 -62 -29 -96 -81 -96 -22 0
-49 5 -60 10 -25 14 -25 61 0 84 23 21 86 45 119 46 19 0 22 -5 22 -44z m-25
-106 c-3 -5 -12 -10 -18 -10 -7 0 -6 4 3 10 19 12 23 12 15 0z m70 -28 c-3 -3
-11 0 -18 7 -9 10 -8 11 6 5 10 -3 15 -9 12 -12z"/>
<path d="M7265 4499 c-74 -18 -115 -78 -115 -172 0 -105 64 -177 158 -177 94
0 152 53 160 146 9 112 -29 182 -112 203 -25 6 -46 11 -48 10 -2 -1 -21 -5
-43 -10z m52 -15 c-3 -3 -12 -4 -19 -1 -8 3 -5 6 6 6 11 1 17 -2 13 -5z m53
-52 c50 -51 52 -144 4 -202 -48 -57 -133 -29 -154 50 -34 127 70 232 150 152z"/>
<path d="M6050 4497 c0 -3 29 -75 65 -161 36 -86 65 -164 65 -175 0 -25 -45
-71 -69 -71 -26 0 -34 -15 -21 -40 7 -13 21 -20 39 -20 50 0 81 50 164 261 42
108 77 199 77 203 0 4 -14 6 -32 4 -30 -3 -33 -7 -76 -121 -25 -64 -48 -115
-50 -112 -3 3 -26 56 -51 118 -44 108 -47 112 -78 115 -18 2 -33 1 -33 -1z"/>
<path d="M5052 4238 c-13 -13 -15 -37 -6 -62 7 -19 45 -21 62 -4 26 26 7 78
-28 78 -9 0 -21 -5 -28 -12z"/>
<path d="M6360 4235 c-10 -12 -11 -24 -4 -43 7 -21 16 -27 39 -27 28 0 30 2
30 40 0 36 -3 40 -26 43 -15 2 -31 -4 -39 -13z"/>
<path d="M7552 4241 c-18 -11 -11 -71 10 -84 24 -16 48 8 48 48 0 40 -27 56
-58 36z m39 -64 c-10 -9 -11 -8 -5 6 3 10 9 15 12 12 3 -3 0 -11 -7 -18z"/>
</g>
</svg>
